<svg width="218" height="218" viewBox="0 0 218 218" fill="none" xmlns="http://www.w3.org/2000/svg">
<path fill-rule="evenodd" clip-rule="evenodd" d="M218 109C218 169.199 169.199 218 109 218C48.8009 218 0 169.199 0 109C0 48.801 48.8009 0 109 0C169.199 0 218 48.801 218 109ZM188.551 125.564C179.739 162.434 148.57 192.846 109 192.846C69.4296 192.846 38.2612 162.434 29.4486 125.564H188.551ZM189.838 98.9573C183.573 58.8446 150.87 25.1538 109 25.1538C67.1297 25.1538 34.4274 58.8446 28.1623 98.9573H189.838Z" fill="url(#paint0_linear_207_275)"/>
<path d="M70.5 77H60.5C59 65.6666 79.5 43 105 43C144.2 43 156.333 63.6666 157.5 74H105C95.5 52 70.5 57.7082 70.5 77Z" fill="#8C9293"/>
<path d="M147 144L157 144C158.5 155.333 138 178 112.5 178C73.3 178 61.1667 157.333 60 147L112.5 147C122 169 147 163.292 147 144Z" fill="#757979"/>
<defs>
<linearGradient id="paint0_linear_207_275" x1="109" y1="0" x2="109" y2="218" gradientUnits="userSpaceOnUse">
<stop stop-color="#8C9293"/>
<stop offset="1" stop-color="#2B2C2D"/>
</linearGradient>
</defs>
</svg>
